<svg width="4646" height="845" viewBox="0 0 4646 845" xmlns="http://www.w3.org/2000/svg"><title>bitbond_logo</title><g fill="none" fill-rule="evenodd"><g fill="#03A9F4" id="logoMark"><path d="M566.93 41.99H793.7v226.77H566.93zM566.93 325.454H793.7v226.772H566.93zM566.93 608.918H793.7V835.69H566.93zM283.465 325.454h226.772v226.772H283.465zM283.465 608.918h226.772V835.69H283.465zM0 608.918h226.772V835.69H0z"/></g><g fill="#272727"><path d="M893.31 834V43h276.905c95.922 0 168.672 18.36 218.266 55.078 49.595 36.72 74.392 90.53 74.392 161.422 0 38.72-9.953 72.812-29.86 102.28-19.905 29.485-47.608 51.095-83.077 64.845 40.53 10.156 72.484 30.656 95.828 61.47 23.344 30.812 35.03 68.53 35.03 113.124 0 76.155-24.265 133.796-72.765 172.952-48.5 39.156-117.64 59.11-207.407 59.828H893.31zm162.89-460h120.53c82.157-1.438 123.25-34.156 123.25-98.14 0-35.782-10.405-61.548-31.218-77.267-20.813-15.72-53.672-23.593-98.547-23.593H1056.2v199zm0 115v214h139.53c38.376 0 68.33-9.156 89.86-27.5 21.53-18.328 32.312-43.64 32.312-75.953 0-72.594-37.47-109.453-112.39-110.547H1056.2zM1591.52 93.734c0-23.47 7.86-42.797 23.61-57.97C1630.88 20.595 1652.318 13 1679.474 13c26.78 0 48.14 7.594 64.078 22.766 15.922 15.172 23.89 34.5 23.89 57.97 0 23.843-8.06 43.343-24.17 58.515-16.11 15.173-37.376 22.75-63.798 22.75-26.422 0-47.688-7.578-63.797-22.75-16.11-15.172-24.156-34.672-24.156-58.516zM1758.21 834h-157.453V246h157.453v588zM2075.4 102v144h100.453v115H2075.4v294.016c0 21.78 4.156 37.39 12.484 46.828 8.312 9.438 24.25 14.156 47.78 14.156 17.376 0 32.75-1.266 46.157-3.797v118.703c-30.78 9.39-62.452 14.094-95.015 14.094-110.047 0-166.156-55.64-168.328-166.953V361h-85.78V246h85.78V102H2075.4zM2792.496 545.922c0 94.094-20.094 167.453-60.28 220.11-40.188 52.655-96.282 78.968-168.313 78.968-63.72 0-114.578-24.47-152.578-73.406L2404.262 834H2263.09V0h156.922v299.484C2456.2 257.172 2503.81 236 2562.81 236c71.67 0 127.874 26.328 168.593 78.984 40.72 52.656 61.094 126.734 61.094 222.266v8.672zm-156.937-11.938c0-59.344-9.423-102.672-28.235-130C2588.497 376.672 2560.45 363 2523.17 363c-49.97 0-84.36 20.453-103.173 61.344v231.78c19.188 41.25 53.938 61.876 104.25 61.876 50.672 0 83.97-24.97 99.906-74.906 7.593-23.875 11.406-60.25 11.406-109.11zM2864.884 535.078c0-58.25 11.22-110.188 33.656-155.78 22.437-45.594 54.75-80.876 96.922-105.845 42.156-24.97 91.125-37.453 146.875-37.453 79.266 0 143.97 24.25 194.11 72.734 50.124 48.5 78.093 114.36 83.89 197.578l1.078 40.156c0 90.11-25.156 162.39-75.47 216.844-50.31 54.47-117.827 81.688-202.53 81.688s-152.297-27.125-202.797-81.406c-50.5-54.28-75.734-128.094-75.734-221.47v-7.046zm156.906 11.11c0 55.656 10.484 98.203 31.484 127.64 21 29.454 51.047 44.173 90.14 44.173 38 0 67.69-14.53 89.048-43.624 21.36-29.094 32.047-75.61 32.047-139.562 0-54.562-10.69-96.828-32.048-126.828C3211.102 378 3181.056 363 3142.337 363c-38.375 0-68.062 14.906-89.062 44.72-21 29.812-31.485 75.968-31.485 138.468zM3662.518 246l4.89 67.938c41.985-51.953 98.267-77.938 168.86-77.938 62.25 0 108.594 18.28 139 54.812 30.406 36.53 45.97 91.156 46.688 163.875V834H3865.05V458.062c0-33.312-7.25-57.484-21.72-72.516-14.483-15.03-38.56-22.547-72.218-22.547-44.172 0-77.297 18.843-99.36 56.5V834H3514.83V246h147.688zM4116.57 536.156c0-91.547 20.53-164.453 61.625-218.734 41.078-54.28 97.28-81.422 168.594-81.422 57.187 0 104.42 21.344 141.702 64.03V0h157.47v834h-141.72l-7.594-62.406C4457.554 820.53 4407.226 845 4345.695 845c-69.14 0-124.61-27.22-166.422-81.688-41.813-54.453-62.703-130.17-62.703-227.156zm156.906 11.14c0 55.095 9.594 97.313 28.78 126.673 19.188 29.36 47.064 44.03 83.626 44.03 48.5 0 82.703-20.47 102.61-61.438V424.438C4468.944 383.484 4435.1 363 4386.96 363c-75.656 0-113.484 61.438-113.484 184.297z"/></g></g></svg>