<?xml version="1.0" encoding="UTF-8" ?>
<!DOCTYPE svg PUBLIC "-//W3C//DTD SVG 1.1//EN" "http://www.w3.org/Graphics/SVG/1.1/DTD/svg11.dtd">
<svg width="278pt" height="93pt" viewBox="0 0 278 93" version="1.1" xmlns="http://www.w3.org/2000/svg">
<!--
  white background
  <path fill="#ffffff" d=" M 0.00 0.00 L 278.00 0.00 L 278.00 93.00 L 0.00 93.00 L 0.00 0.00 Z" />
-->
<path fill="#000000" d=" M 243.86 6.23 C 245.23 4.22 247.67 3.69 249.89 3.21 C 255.17 2.74 260.61 2.60 265.71 4.28 C 266.08 4.79 266.82 5.81 267.19 6.32 C 267.72 6.44 268.77 6.67 269.29 6.78 C 271.79 10.11 273.71 13.77 274.21 17.95 C 270.82 22.30 275.11 27.43 272.61 31.98 C 273.14 33.02 273.68 34.06 274.22 35.09 C 273.74 36.57 273.31 38.05 272.89 39.53 C 271.33 40.12 269.78 40.91 268.07 40.81 C 260.04 40.83 252.00 40.79 243.97 40.82 C 241.97 40.99 240.10 40.23 238.27 39.56 C 237.27 37.02 236.78 34.33 238.45 31.93 C 236.51 28.39 238.79 24.81 238.42 21.12 C 236.15 18.22 237.76 14.65 238.55 11.53 C 239.98 10.23 240.98 8.58 241.88 6.90 C 242.38 6.73 243.36 6.39 243.86 6.23 Z" />
<path fill="#ffffff" d=" M 249.05 5.33 C 252.25 3.24 256.24 4.38 259.81 3.82 C 260.62 5.96 261.59 8.10 263.62 9.34 C 266.94 5.48 260.51 7.71 262.56 4.67 C 264.22 5.65 265.88 6.64 267.56 7.60 C 269.97 9.81 271.87 12.71 272.00 16.07 C 272.21 16.90 272.63 18.56 272.84 19.38 C 261.30 19.63 249.75 19.59 238.22 19.38 C 238.52 18.25 238.73 17.05 239.50 16.11 C 239.58 15.08 239.65 14.04 239.72 13.01 C 241.37 9.86 243.81 7.21 247.02 5.62 C 247.53 5.55 248.54 5.40 249.05 5.33 Z" />
<path fill="#000000" d=" M 254.02 6.42 C 256.32 5.84 257.02 7.36 257.00 9.45 C 255.92 8.52 254.94 7.49 254.02 6.42 Z" />
<path fill="#000000" d=" M 247.80 6.79 C 249.36 6.36 249.97 6.97 249.64 8.62 C 248.04 9.02 247.43 8.41 247.80 6.79 Z" />
<path fill="#000000" d=" M 243.89 10.52 C 244.69 10.36 246.31 10.02 247.11 9.86 C 246.03 10.94 244.94 12.02 243.87 13.11 C 243.90 12.25 243.90 11.38 243.89 10.52 Z" />
<path fill="#000000" d=" M 251.52 10.22 C 255.09 7.96 252.52 15.31 250.72 12.01 C 250.92 11.56 251.32 10.67 251.52 10.22 Z" />
<path fill="#000000" d=" M 260.19 12.33 C 257.45 14.76 256.96 9.56 259.91 9.63 C 260.79 10.35 260.88 11.25 260.19 12.33 Z" />
<path fill="#000000" d=" M 264.80 12.07 C 264.93 10.77 265.64 9.98 266.92 9.70 C 267.87 10.38 267.99 11.28 267.29 12.40 C 266.29 13.28 265.46 13.17 264.80 12.07 Z" />
<path fill="#ffffff" d=" M 239.39 20.96 C 245.17 20.45 250.99 20.78 256.79 20.74 L 256.62 22.57 C 251.40 22.35 246.17 22.62 240.95 22.45 C 240.56 22.08 239.78 21.33 239.39 20.96 Z" />
<path fill="#ffffff" d=" M 257.97 20.72 C 260.59 20.68 263.21 20.68 265.82 20.89 C 264.20 23.61 260.66 22.12 258.10 22.58 C 258.07 22.11 258.01 21.18 257.97 20.72 Z" />
<path fill="#ffffff" d=" M 266.07 20.69 C 268.06 20.69 270.06 20.76 272.05 20.94 C 270.85 23.22 268.19 22.33 266.15 22.62 C 266.13 22.14 266.09 21.17 266.07 20.69 Z" />
<path fill="#ffffff" d=" M 241.10 23.88 C 245.40 23.58 249.73 24.01 254.03 24.16 C 255.99 23.67 258.04 23.61 260.01 24.10 C 263.52 23.60 267.06 23.77 270.60 23.72 C 270.64 24.16 270.73 25.04 270.77 25.49 C 264.06 25.39 257.33 25.32 250.62 25.53 C 249.92 25.99 249.23 26.44 248.53 26.89 C 246.12 24.73 242.76 25.64 239.84 25.24 L 241.10 23.88 Z" />
<path fill="#ffffff" d=" M 239.31 26.70 C 242.51 26.85 246.76 25.61 248.36 29.32 C 249.51 28.45 250.59 27.48 251.85 26.77 C 258.52 26.59 265.19 26.79 271.86 26.68 C 271.81 27.53 271.71 29.23 271.66 30.07 C 261.02 29.93 250.38 30.17 239.74 29.98 C 239.63 29.16 239.42 27.52 239.31 26.70 Z" />
<path fill="#ffffff" d=" M 238.64 31.73 C 247.63 30.21 256.87 31.48 265.97 31.06 C 268.06 31.23 270.70 30.40 272.26 32.26 C 269.13 33.03 265.04 31.52 263.01 34.79 C 259.95 31.30 255.03 33.01 251.00 32.63 C 246.89 32.33 242.53 33.44 238.64 31.73 Z" />
<path fill="#ffffff" d=" M 238.03 35.15 C 238.66 34.79 239.93 34.08 240.56 33.72 C 246.90 33.85 253.24 33.78 259.58 33.76 C 260.70 34.75 261.82 35.72 262.95 36.70 C 263.84 35.71 264.74 34.73 265.63 33.74 C 268.05 34.03 271.03 32.92 272.84 35.09 C 272.62 36.88 271.08 38.09 270.19 39.57 C 260.47 39.58 250.74 39.68 241.02 39.51 C 240.01 38.07 239.04 36.60 238.03 35.15 Z" />
<path fill="#000000" d=" M 165.62 48.14 C 170.75 48.07 175.87 48.11 181.00 47.87 C 186.45 47.70 192.42 47.79 197.05 51.07 C 202.56 55.14 202.58 63.66 199.10 69.04 C 194.98 75.16 186.80 76.42 179.98 75.84 C 180.18 74.83 180.44 73.83 180.75 72.85 C 184.51 72.23 188.84 72.55 191.82 69.73 C 195.15 66.52 195.07 61.23 193.87 57.08 C 192.15 51.97 185.79 50.69 181.08 51.37 C 178.78 51.68 178.45 54.26 178.45 56.14 C 178.40 64.79 178.46 73.45 178.42 82.10 C 178.53 83.49 178.12 85.48 179.83 86.06 C 182.35 87.37 187.39 86.26 186.83 90.46 C 180.22 90.15 173.57 90.74 166.98 90.10 C 166.50 89.21 166.08 88.29 165.74 87.34 C 167.81 86.92 171.38 87.75 171.72 84.78 C 172.25 75.88 171.76 66.92 171.96 58.00 C 171.83 56.25 172.28 54.28 171.27 52.72 C 169.15 51.36 165.38 51.56 165.62 48.14 Z" />
<path fill="#000000" d=" M 205.38 48.08 C 211.23 48.17 217.08 47.99 222.93 47.83 C 228.34 47.77 234.53 48.42 238.41 52.63 C 243.07 58.47 241.55 68.15 235.47 72.45 C 230.93 75.69 225.13 76.05 219.74 76.11 C 219.87 75.32 220.13 73.75 220.27 72.97 C 223.87 72.09 228.06 72.67 231.05 70.06 C 234.73 67.09 234.71 61.67 233.64 57.47 C 232.03 52.03 225.29 50.49 220.36 51.46 C 217.88 51.98 218.22 55.04 218.09 56.96 C 218.16 65.99 217.96 75.02 218.16 84.04 C 218.65 88.70 227.29 84.93 226.48 90.46 C 220.34 90.23 214.19 90.56 208.05 90.27 C 206.10 90.57 205.98 88.57 205.59 87.23 C 207.22 86.94 209.12 87.43 210.58 86.48 C 211.60 85.27 211.47 83.57 211.57 82.09 C 211.58 73.39 211.57 64.68 211.58 55.98 C 211.47 54.81 211.73 53.26 210.57 52.52 C 208.53 51.38 204.79 51.38 205.38 48.08 Z" />
<path fill="#000000" d=" M 245.35 47.95 C 250.61 48.30 255.90 47.85 261.17 48.23 C 262.95 48.13 262.78 50.19 263.38 51.31 C 261.23 51.46 257.79 50.80 257.70 53.94 C 257.20 60.94 257.64 67.99 257.49 75.01 C 257.64 78.65 257.10 82.36 257.86 85.95 C 259.77 87.50 263.66 86.91 263.35 90.42 C 257.88 90.27 252.40 90.58 246.94 90.22 C 245.35 90.45 245.09 88.45 245.19 87.33 C 246.72 87.08 248.29 87.00 249.81 86.65 C 251.20 85.11 250.84 82.88 250.95 80.98 C 250.86 71.99 251.05 62.98 250.87 53.99 C 251.04 50.37 244.16 52.33 245.35 47.95 Z" />
<path fill="#fecd02" d=" M 44.21 49.51 C 51.40 49.65 58.60 49.65 65.79 49.51 C 65.96 51.93 67.70 55.57 65.33 57.23 C 63.10 57.44 60.86 57.41 58.63 57.45 C 58.69 68.10 58.70 78.74 58.62 89.38 C 56.21 89.39 53.80 89.39 51.39 89.38 C 51.33 78.73 51.32 68.09 51.40 57.44 C 48.88 57.01 45.61 58.31 43.65 56.35 C 43.36 54.05 43.75 51.75 44.21 49.51 Z" />
<path fill="#fecd02" d=" M 72.69 51.75 C 76.59 49.00 81.46 49.49 85.98 49.63 C 89.18 49.73 92.29 51.80 93.25 54.94 C 93.81 58.24 93.54 61.60 93.55 64.92 C 91.17 64.94 88.79 64.94 86.41 64.92 C 86.40 62.45 86.37 59.98 86.34 57.52 C 83.72 57.29 81.09 57.26 78.46 57.41 C 78.32 65.39 78.03 73.41 78.54 81.37 C 80.30 83.07 82.98 82.11 85.17 82.35 C 85.47 81.88 86.09 80.93 86.40 80.45 C 86.40 78.43 86.40 76.40 86.42 74.38 C 88.79 74.37 91.17 74.38 93.54 74.40 C 93.55 77.62 93.79 80.87 93.31 84.07 C 92.48 86.84 90.01 89.23 87.02 89.29 C 83.32 89.43 79.52 89.72 75.86 89.01 C 71.97 88.09 70.52 83.62 70.62 80.06 C 70.67 72.05 70.54 64.03 70.72 56.02 C 71.40 54.61 72.05 53.18 72.69 51.75 Z" />
<path fill="#fecd02" d=" M 104.83 49.61 C 109.53 49.88 114.68 48.64 118.98 51.11 C 120.93 52.76 121.81 55.40 121.67 57.92 C 121.66 65.99 121.72 74.06 121.64 82.13 C 121.80 84.48 120.28 86.36 119.20 88.28 C 114.93 89.80 110.34 89.49 105.89 89.32 C 102.57 89.30 99.27 86.49 99.41 83.03 C 99.15 76.05 99.36 69.05 99.28 62.07 C 99.34 59.38 99.10 56.63 99.78 54.00 C 100.51 51.68 102.93 50.77 104.83 49.61 Z" />
<path fill="#fecd02" d=" M 140.70 49.62 C 142.80 49.62 144.89 49.66 146.99 49.72 C 150.23 57.24 154.31 64.39 157.31 72.01 C 158.48 64.53 156.82 56.89 158.34 49.46 C 160.40 49.52 162.47 49.58 164.54 49.63 C 164.94 62.88 164.67 76.15 164.65 89.40 C 162.70 89.39 160.75 89.37 158.80 89.35 C 155.58 82.65 151.96 76.12 149.28 69.16 C 148.89 69.27 148.12 69.47 147.73 69.58 C 147.77 76.21 147.94 82.85 147.64 89.49 C 145.40 89.10 142.59 90.14 140.72 88.58 C 140.60 75.60 140.61 62.61 140.70 49.62 Z" />
<path fill="#fecd02" d=" M 3.40 89.39 C 3.35 76.12 3.20 62.85 3.48 49.59 C 10.08 49.85 16.86 48.76 23.26 50.85 C 27.11 55.59 25.35 61.89 25.79 67.48 C 24.61 68.12 23.42 68.74 22.29 69.48 C 23.37 70.30 24.52 71.01 25.66 71.75 C 25.81 76.20 25.82 80.66 25.49 85.10 C 24.67 86.14 23.88 87.19 23.09 88.25 C 16.78 90.47 9.94 88.97 3.40 89.39 Z" />
<path fill="#fecd02" d=" M 31.61 50.58 C 33.36 48.86 37.73 48.83 39.29 50.88 C 39.61 62.23 39.25 73.60 39.45 84.96 C 39.27 86.46 40.06 88.54 38.26 89.30 C 36.03 89.50 33.78 89.40 31.54 89.37 C 31.55 76.44 31.40 63.50 31.61 50.58 Z" />
<path fill="#fecd02" d=" M 127.75 49.79 C 130.00 49.53 132.26 49.54 134.52 49.46 C 135.11 51.59 135.50 53.77 135.39 55.98 C 135.25 66.74 135.46 77.50 135.31 88.25 C 133.43 90.45 130.04 88.99 127.51 89.39 C 127.61 76.19 127.12 62.96 127.75 49.79 Z" />
<path fill="#ffffff" d=" M 10.47 66.25 C 10.20 63.05 10.18 59.84 10.43 56.64 C 13.12 56.72 15.81 56.98 18.46 57.44 C 18.52 60.52 19.92 64.23 16.81 66.32 C 14.70 66.26 12.58 66.24 10.47 66.25 Z" />
<path fill="#ffffff" d=" M 106.58 57.45 C 109.19 57.27 111.82 57.25 114.44 57.40 C 114.66 65.23 114.53 73.06 114.54 80.90 C 113.94 81.37 113.35 81.84 112.76 82.31 C 111.28 82.31 109.81 82.31 108.33 82.31 C 107.71 81.77 107.08 81.23 106.45 80.70 C 106.51 72.95 106.32 65.20 106.58 57.45 Z" />
<path fill="#ffffff" d=" M 10.25 73.34 C 12.97 73.37 15.69 73.42 18.40 73.57 C 18.53 76.05 18.59 78.53 18.63 81.01 C 18.31 81.35 17.67 82.03 17.35 82.37 C 15.01 82.37 12.67 82.38 10.33 82.40 C 10.26 79.38 10.24 76.36 10.25 73.34 Z" />
</svg>
